<svg width="0" height="0" style="display:none;"> 
	<symbol id="phone-i" viewBox="0 0 21 35">
		<path fill-rule="evenodd"
		d="M18.302,-0.000 L2.698,-0.000 C1.398,-0.000 0.334,1.063 0.334,2.364 L0.334,32.634 C0.334,33.935 1.398,35.000 2.698,35.000 L18.302,35.000 C19.601,35.000 20.666,33.937 20.666,32.635 L20.666,2.364 C20.666,1.063 19.601,-0.000 18.302,-0.000 ZM8.004,1.704 L12.996,1.704 C13.154,1.704 13.282,1.832 13.282,1.991 C13.282,2.149 13.154,2.277 12.996,2.277 L8.004,2.277 C7.846,2.277 7.718,2.149 7.718,1.991 C7.718,1.832 7.846,1.704 8.004,1.704 ZM10.500,33.818 C9.847,33.818 9.318,33.289 9.318,32.635 C9.318,31.982 9.847,31.454 10.500,31.454 C11.152,31.454 11.681,31.982 11.681,32.635 C11.681,33.289 11.152,33.818 10.500,33.818 ZM19.021,30.625 L1.979,30.625 L1.979,3.749 L19.021,3.749 L19.021,30.625 Z"/>
	</symbol>

	<symbol id="right-arrow-i" viewBox="0 0 16 16">
		<path d="M1 9v-2h11v-2l3 3-3 3v-2z"></path>
	</symbol>

	<symbol id="chevron-right" viewBox="-458.3 273 5.4 10.1">
  		<path d="M-457.6587 273.1c-.1-.1-.3-.1-.5 0-.1.1-.1.1-.1.2s0 .2.1.2l4.5 4.5-4.5 4.5c-.1.1-.1.1-.1.2s0 .2.1.2c.1.1.1.1.2.1s.2 0 .2-.1l4.7-4.7c.1-.1.1-.1.1-.2s0-.2-.1-.2z"/>
	</symbol>

	<symbol id="link-i">
		<path fill-rule="evenodd"
		d="M71.148,28.719 L56.778,43.078 C53.793,46.063 49.500,47.741 45.021,47.741 C40.543,47.741 36.250,46.062 33.078,42.892 C30.279,40.095 28.599,36.365 28.226,32.262 C28.039,30.770 29.346,29.465 30.838,29.278 C32.331,29.091 33.638,30.397 33.824,31.889 C34.011,34.500 35.131,37.111 36.997,38.976 C39.049,41.027 41.849,42.146 44.835,42.146 C47.821,42.146 50.620,41.027 52.673,38.976 L67.042,24.616 C71.334,20.326 71.334,13.240 67.042,8.764 C62.750,4.474 55.658,4.474 51.180,8.764 L40.542,19.394 C39.423,20.513 37.743,20.513 36.623,19.394 C35.504,18.275 35.504,16.596 36.623,15.477 L47.261,4.847 C50.433,1.677 54.725,-0.002 59.204,-0.002 C63.683,-0.002 67.975,1.677 71.148,4.847 C74.320,8.018 76.000,12.307 76.000,16.783 C76.000,21.259 74.320,25.548 71.148,28.719 ZM42.969,26.108 C45.768,28.905 47.448,32.635 47.821,36.738 C48.007,38.230 46.701,39.535 45.208,39.722 C43.715,39.908 42.409,38.603 42.222,37.111 C42.036,34.500 40.916,31.889 39.050,30.024 C34.758,25.735 27.666,25.735 23.187,30.024 L8.818,44.384 C4.526,48.673 4.526,55.760 8.818,60.236 C13.110,64.525 20.202,64.525 24.680,60.236 L35.318,49.606 C36.437,48.487 38.117,48.487 39.237,49.606 C40.356,50.725 40.356,52.403 39.237,53.522 L28.599,64.152 C25.613,67.323 21.321,69.001 16.842,69.001 C12.363,69.001 8.071,67.323 4.899,64.152 C-1.633,57.625 -1.633,46.995 4.899,40.468 L19.268,26.108 C25.800,19.580 36.437,19.580 42.969,26.108 Z"/>
	</symbol>

	<symbol id="search-i" width="27px" height="27px">
		<path fill-rule="evenodd"
 		d="M25.691,19.285 C24.146,22.542 21.426,25.002 18.031,26.212 C16.553,26.739 15.020,27.000 13.494,27.000 C11.090,27.000 8.704,26.354 6.580,25.086 C6.319,24.931 6.234,24.594 6.389,24.333 C6.545,24.073 6.882,23.988 7.142,24.143 C10.332,26.047 14.167,26.424 17.662,25.178 C20.780,24.066 23.279,21.806 24.698,18.815 C26.117,15.823 26.287,12.458 25.175,9.339 C24.063,6.220 21.804,3.721 18.812,2.302 C15.821,0.883 12.457,0.714 9.338,1.825 C6.219,2.937 3.721,5.197 2.301,8.189 C0.883,11.180 0.713,14.545 1.825,17.664 C1.927,17.950 1.778,18.264 1.492,18.366 C1.207,18.467 0.892,18.319 0.790,18.033 C-0.420,14.638 -0.235,10.974 1.309,7.718 C2.854,4.461 5.574,2.001 8.969,0.791 C12.364,-0.420 16.027,-0.235 19.283,1.310 C22.539,2.855 24.999,5.575 26.209,8.970 C27.420,12.366 27.235,16.029 25.691,19.285 ZM15.165,7.757 C14.950,7.543 14.950,7.195 15.165,6.980 C15.379,6.766 15.727,6.766 15.941,6.980 L22.073,13.113 C22.288,13.328 22.288,13.675 22.073,13.890 L15.941,20.023 C15.834,20.130 15.693,20.184 15.553,20.184 C15.412,20.184 15.272,20.130 15.165,20.023 C14.950,19.808 14.950,19.461 15.165,19.246 L20.909,13.501 L15.165,7.757 ZM5.315,12.952 L18.992,12.952 C19.295,12.952 19.541,13.198 19.541,13.502 C19.541,13.805 19.295,14.051 18.992,14.051 L5.315,14.051 C5.011,14.051 4.766,13.805 4.766,13.502 C4.766,13.198 5.011,12.952 5.315,12.952 Z"/>
	</symbol>
</svg>